<mxfile host="app.diagrams.net" modified="2024-04-01T14:43:13.158Z" agent="Mozilla/5.0 (Windows NT 10.0; Win64; x64; rv:124.0) Gecko/20100101 Firefox/124.0" etag="2BdsZodj95PdhXs8RAsx" version="24.2.1" type="github">
  <diagram name="Page-1" id="Iy_dI4fpFOT3Uq1jtPuq">
    <mxGraphModel dx="1687" dy="920" grid="1" gridSize="10" guides="1" tooltips="1" connect="1" arrows="1" fold="1" page="1" pageScale="1" pageWidth="850" pageHeight="1100" math="0" shadow="0">
      <root>
        <mxCell id="0" />
        <mxCell id="1" parent="0" />
      </root>
    </mxGraphModel>
  </diagram>
</mxfile>
